<svg xmlns="http://www.w3.org/2000/svg" width="68" height="16.615" viewBox="0 0 68 16.615">
  <path id="dribbble" d="M67.283,11.5c-.211-.153-.379-.166-.517.116-2.372,5.123-6.361,2.565-5.962,2.791.885-.407,3.211-2.268,2.862-4.848a2.392,2.392,0,0,0-3-2.02c-2.507.437-3.422,3.14-2.957,5.53a4.6,4.6,0,0,0,.377,1.082c-2.824,2.3-3.952-2.055-4.083-2.578a10.376,10.376,0,0,0,2.8-6.207C57.441.807,55.986-.028,54.491,0,51.745.051,51,5.806,52,10.587a2.98,2.98,0,0,1-1.1.262c-.45-1.417-2.376-2.658-2.877-2.181-1.258,1.2.306,3.54,1.41,3.721-.665,4.077-4.8,3.067-4.034-2.042,1.344-2.5,2.376-6.228,2.188-8.473A1.894,1.894,0,0,0,45.6.066C43.046.168,42.77,5.916,43.068,10a2.139,2.139,0,0,1-1.206.792C41.614,9.418,39.4,8.031,38.871,8.7c-.974,1.243.719,3.459,1.52,3.612-.665,4.077-4.8,3.067-4.034-2.042A18.145,18.145,0,0,0,38.552,1.8a1.889,1.889,0,0,0-1.98-1.8c-2.558.1-2.834,5.849-2.537,9.933a2.1,2.1,0,0,1-1.249.807c-.037-1.788-2.259-2.6-2.8-2.035-.952,1.017.218,3.1,1.3,3.612-.665,4.077-4.8,3.067-4.034-2.042,1.346-2.492,2.377-6.228,2.188-8.473a1.882,1.882,0,0,0-1.977-1.8C24.91.093,24.705,6.138,25,10.215c-.844,3.612-3.67,8.117-3.3-.915.037-.633.073-.872-.241-1.111-.239-.183-.777-.095-1.068-.088-.356.015-.45.226-.522.538a13.584,13.584,0,0,0-.248,2.688,4.78,4.78,0,0,1-.254,1.432c-.2.691-1.3,1.947-1.912,1.736-.842-.291-.567-2.658-.407-4.3.131-1.294-.289-1.867-1.366-2.078A13.35,13.35,0,0,1,14.016,7.8c-.625-.2-.763-1.374-2.085-.982-.726.218-.262,1.751-.435,2.892-.864,5.6-2.638,5.756-3.467,3.039C11.75,3.62,9.1.023,7.549.023c-1.613,0-3.457,1.111-2.68,8.232a2.562,2.562,0,0,0-.917-.166A4,4,0,0,0,0,12.332a4.009,4.009,0,0,0,3.961,4.251,3.717,3.717,0,0,0,3.1-1.606c.48.691,1.068,1.62,2.145,1.577,3.2-.115,4.127-6.685,4.236-7.056.332.052.665.153.98.2.523.08.567.291.553.812-.138,4.462.683,6.024,2.55,6.024,1.038,0,1.969-1.023,2.608-1.751a2.682,2.682,0,0,0,2.259,1.751c2.472.058,3.422-3.879,3.336-3.364-.065.407.8,3.336,3.349,3.351,3.156.013,3.743-3.452,3.808-4.034.015-.1,0-.116,0,0v.037a3.005,3.005,0,0,0,1.518-.719s.814,4.775,3.779,4.723c3.088-.058,3.676-3.19,3.75-3.8.013-.13,0-.145,0,0v.015a3.357,3.357,0,0,0,1.5-.864s.64,4.68,3.779,4.723c2.8.037,3.836-2.834,3.843-4.034a4.381,4.381,0,0,0,1.329-.3s1.023,4.09,3.887,4.3A4.519,4.519,0,0,0,59.2,15.427c1.352,1.1,5.849,2.492,8.69-2.326C68.3,12.418,67.432,11.6,67.283,11.5ZM3.848,14.985a2.438,2.438,0,0,1-2.253-2.638A2.375,2.375,0,0,1,3.771,9.715a1.844,1.844,0,0,1,1.445.487c.088.342.332,1.135.459,1.5.166.48.356.894.545,1.329a2.431,2.431,0,0,1-2.376,1.965Zm3.339-4.746c-.058-.095-.043-.037-.11-.123A13.34,13.34,0,0,1,6.285,6.17C6.22,4.208,6.547,1.9,7.514,1.9,8.167,1.9,8.865,6.569,7.187,10.239ZM26.523,8.2c-.153-1.163-.166-6.358,1.082-6.213C28.3,2.261,27.169,7.158,26.523,8.2Zm9.1,0c-.153-1.163-.166-6.358,1.083-6.213C37.4,2.261,36.273,7.158,35.627,8.2Zm9.033.073c-.153-1.163-.166-6.358,1.083-6.213.689.269-.437,5.173-1.083,6.213Zm9.968-6.6c1.141-.116,1.09,4.863-1.191,8-.3-1.133-.748-7.607,1.193-8Zm4.8,10.719c-.364-1.852.581-3.067,1.555-3.2a.866.866,0,0,1,.93.581c.166.777-.023,1.934-2.21,3.394a3.425,3.425,0,0,1-.276-.777ZM20.775,6.678a1.409,1.409,0,1,0-1-.412A1.41,1.41,0,0,0,20.775,6.678Z" transform="translate(0 0.01)" fill="#ea4c89" opacity="0.9"/>
</svg>
