<svg xmlns="http://www.w3.org/2000/svg" width="249.9" height="21.6" viewBox="0 0 249.9 21.6">
  <g id="logo-outlined-newsize" transform="translate(-0.1)">
    <path id="Path_49" data-name="Path 49" d="M10.7,8.3c-.5-2-1.4-2.9-2.8-2.9A2.182,2.182,0,0,0,5.6,7.6c0,3,6.8,4.9,6.8,8.9,0,3.1-3.8,6.2-12.3,4.4l.8-3.4c6.2,1.8,8.1.8,8.1-.6,0-2.6-6.8-4.4-6.8-8.6,0-2.9,2.9-5.8,6.7-5.8,3.1,0,4.4,1.8,4.9,5.1Z"/>
    <path id="Path_50" data-name="Path 50" d="M16.7,16.3l1.2-4.9-2-1.4,3.2-3.6,3.2-.2-2.2,9.4c-.7,3.1-.4,3.2,4.3,2.2l.4,1.6C18.1,23.3,15.5,21.1,16.7,16.3ZM19.4,4.1l1-3.9,4-.2L23.1,3.9Z"/>
    <path id="Path_51" data-name="Path 51" d="M34.2,6c3.2,0,5.3,2.2,5.3,6,0,5.1-4,9.6-8.2,9.6-3.2,0-5.3-2.2-5.3-6C26,10.4,30,6,34.2,6Zm-.8,2.7c-2.5,0-4.1,3-4.1,6,0,2.6,1.1,4.1,2.9,4.1,2.5,0,4.1-3,4.1-6C36.2,10.2,35.1,8.7,33.4,8.7Z"/>
    <path id="Path_52" data-name="Path 52" d="M41.6,20.7,45.5.7,48.8.4,47.2,8.5C48.8,7.1,50.5,6,52,6c1.8,0,3.4,1.6,3.4,4.9,0,5.3-3.6,10.6-9.7,10.6A13.574,13.574,0,0,1,41.6,20.7Zm10.6-9c0-1.8-.7-2.6-1.7-2.6s-2.5,1-3.8,2.2l-1.4,6.9a10.565,10.565,0,0,0,2.9.6C50.3,18.8,52.2,14.8,52.2,11.7Z"/>
    <path id="Path_53" data-name="Path 53" d="M66.3,19.5c0-2.4,1.9-6.9,1.9-9,0-.9-.4-1.4-1.5-1.4-1.3,0-2.8.9-4.5,3l-1.8,9H57.2L61.2.7,64.5.4,62.8,9.1A8.783,8.783,0,0,1,68.9,6a2.583,2.583,0,0,1,2.9,2.9c0,2.9-1.9,7.8-1.9,9.2,0,.5.3.6,2.8,0l.4,1.6C68.4,22.2,66.3,21.7,66.3,19.5Z"/>
    <path id="Path_54" data-name="Path 54" d="M83,18.7c-1.7,1.6-3.6,2.8-5.1,2.8-1.7,0-3.1-1.4-3.1-4.5,0-5.4,3.7-10.9,9.7-10.9a15.532,15.532,0,0,1,4,.6L86.4,17.4c-.3,1.3-.2,1.3,2.7.7l.4,1.6C84.4,22.6,82.8,21.6,83,18.7Zm.4-2.6,1.3-6.7a12.772,12.772,0,0,0-2.8-.5C79.8,8.9,78,12.8,78,16c0,1.6.6,2.3,1.4,2.3C80.4,18.3,82,17.4,83.4,16.1Z"/>
    <path id="Path_55" data-name="Path 55" d="M100.2,19.5c0-2.3,1.9-6.8,1.9-8.9,0-.9-.4-1.5-1.4-1.5-1.3,0-2.7.9-4.5,2.7L94.3,21H91.1c1.4-7,2-10.3,2.6-14.6l3.2-.2-.4,2.9c2.1-2.1,4.3-3.2,6.3-3.2a2.583,2.583,0,0,1,2.9,2.9c0,2.9-1.9,7.8-1.9,9.2,0,.5.3.6,2.8,0l.4,1.6C102.3,22.2,100.2,21.7,100.2,19.5Z"/>
    <path id="Path_56" data-name="Path 56" d="M133.4,9.8c0,6.4-4.4,11.7-9.8,11.7-3.7,0-6.3-2.7-6.3-7.4,0-6.4,4.4-11.7,9.8-11.7C130.8,2.5,133.4,5.1,133.4,9.8Zm-3.3.6c0-3.4-1.8-5-3.8-5-3.6,0-5.6,4-5.6,8.1,0,3.4,1.8,5,3.8,5C128.1,18.5,130.1,14.5,130.1,10.4Z"/>
    <path id="Path_57" data-name="Path 57" d="M138.7,1.4l4.1-.1c-.3,3.6-2.3,6.2-4.9,8.7l-1.4-.8C138.2,6.9,138.6,4.4,138.7,1.4Z"/>
    <path id="Path_58" data-name="Path 58" d="M143,21.1,146.5,3c7.6-1.2,12.2,1.2,12.2,7C158.7,16.7,153.5,22.3,143,21.1Zm6.4-15.5-2.5,12.8c5.8.1,8.4-3.5,8.4-8C155.4,7.2,153.6,5.3,149.4,5.6Z"/>
    <path id="Path_59" data-name="Path 59" d="M169.1,6c3.2,0,5.3,2.2,5.3,6,0,5.1-4,9.6-8.2,9.6-3.2,0-5.3-2.2-5.3-6C160.9,10.4,164.9,6,169.1,6Zm-.9,2.7c-2.5,0-4.1,3-4.1,6,0,2.6,1.1,4.1,2.9,4.1,2.5,0,4.1-3,4.1-6C171.1,10.2,170,8.7,168.2,8.7Z"/>
    <path id="Path_60" data-name="Path 60" d="M185.5,19.5c0-2.3,1.9-6.8,1.9-8.9,0-.9-.4-1.5-1.4-1.5-1.3,0-2.7.9-4.5,2.7L179.6,21h-3.2c1.4-7,2-10.3,2.6-14.6l3.2-.2-.4,2.9c2.1-2.1,4.3-3.2,6.3-3.2A2.583,2.583,0,0,1,191,8.8c0,2.9-1.9,7.8-1.9,9.2,0,.5.3.6,2.8,0l.4,1.6C187.6,22.2,185.5,21.7,185.5,19.5Z"/>
    <path id="Path_61" data-name="Path 61" d="M203.2,19.5c0-2.3,1.9-6.8,1.9-8.9,0-.9-.4-1.5-1.4-1.5-1.3,0-2.7.9-4.5,2.7L197.3,21h-3.2c1.4-7,2-10.3,2.6-14.6l3.2-.2-.4,2.9c2.1-2.1,4.3-3.2,6.3-3.2a2.583,2.583,0,0,1,2.9,2.9c0,2.9-1.9,7.8-1.9,9.2,0,.5.3.6,2.8,0l.4,1.6C205.3,22.2,203.2,21.7,203.2,19.5Z"/>
    <path id="Path_62" data-name="Path 62" d="M211.9,16.1c0-4.9,4-10.1,8.6-10.1,2.5,0,3.9,1.4,3.9,3.7,0,3.6-3.6,5.6-9.4,6.1.1,2.9,1.9,3.4,8.4,2l.4,1.6C215.5,23.8,211.9,20.6,211.9,16.1Zm3.4-2.5c3.6-.2,6-1.1,6-3a1.606,1.606,0,0,0-1.8-1.7C217.3,8.9,215.8,11.1,215.3,13.6Z"/>
    <path id="Path_63" data-name="Path 63" d="M226.6,15.7c0-8.8,4.6-15.3,8.7-15.3,1.6,0,2.8,1.1,2.8,3.3,0,4.3-3.2,8.5-8.1,12.7.4,2.7,2.1,2.9,5.8,1.2l.6,1.6C230.2,23.2,226.6,21.7,226.6,15.7Zm3.3-1.8c3.2-3.3,4.8-6.3,4.8-8.6,0-1-.5-1.4-1-1.4C232.2,3.9,230.1,7.4,229.9,13.9Z"/>
    <path id="Path_64" data-name="Path 64" d="M238.5,15.7c0-8.8,4.6-15.3,8.7-15.3,1.6,0,2.8,1.1,2.8,3.3,0,4.3-3.2,8.5-8.1,12.7.4,2.7,2.1,2.9,5.8,1.2l.6,1.6C242.1,23.2,238.5,21.7,238.5,15.7Zm3.3-1.8c3.2-3.3,4.8-6.3,4.8-8.6,0-1-.5-1.4-1-1.4C244.1,3.9,242,7.4,241.8,13.9Z"/>
  </g>
</svg>
