<?xml version="1.0" encoding="utf-8"?>
<!-- Generator: Adobe Illustrator 24.1.0, SVG Export Plug-In . SVG Version: 6.00 Build 0)  -->
<svg version="1.1" id="Layer_1" xmlns="http://www.w3.org/2000/svg" xmlns:xlink="http://www.w3.org/1999/xlink" x="0px" y="0px"
	 viewBox="0 0 612.2 52.8" style="enable-background:new 0 0 612.2 52.8;" xml:space="preserve">
<g>
	<path d="M26.2,20.3c-1.2-4.9-3.4-7.1-6.9-7.1c-3.4,0-5.7,2.5-5.7,5.4c0,7.3,16.6,12,16.6,21.7c0,7.6-9.2,15.2-30.2,10.8l2-8.2
		c15.1,4.3,19.7,1.9,19.7-1.4c0-6.4-16.6-10.7-16.6-21.1c0-7.2,7.2-14.2,16.3-14.2c7.5,0,10.7,4.5,12,12.4L26.2,20.3z"/>
	<path d="M41,39.9l3-12l-5-3.3l7.8-8.7l7.8-0.6l-5.3,23c-1.8,7.6-1,7.8,10.5,5.3l0.9,4C44.4,57.1,38.1,51.8,41,39.9z M47.5,10.1
		l2.4-9.4l9.8-0.6l-3.1,9.4L47.5,10.1z"/>
	<path d="M83.8,14.7c7.8,0,13,5.5,13,14.7c0,12.5-9.9,23.4-20.2,23.4c-7.8,0-13-5.5-13-14.7C63.6,25.6,73.5,14.7,83.8,14.7z
		 M81.7,21.4c-6.2,0-9.9,7.3-9.9,14.6c0,6.3,2.6,9.9,7,9.9c6.2,0,9.9-7.3,9.9-14.6C88.7,25.1,86.1,21.4,81.7,21.4z"/>
	<path d="M101.9,50.7l9.6-49l8-0.7l-3.9,19.9c3.9-3.5,8.2-6.3,11.9-6.3c4.5,0,8.2,3.9,8.2,12c0,13-8.9,26.1-23.8,26.1
		C108.8,52.7,104.6,51.7,101.9,50.7z M127.8,28.7c0-4.5-1.8-6.4-4.2-6.4c-2.5,0-6.1,2.4-9.4,5.4l-3.3,16.9c2.9,0.9,5.6,1.4,7.1,1.4
		C123.3,46,127.8,36.3,127.8,28.7z"/>
	<path d="M162.4,47.8c0-5.8,4.6-16.8,4.6-22c0-2.1-0.9-3.5-3.6-3.5c-3.1,0-6.8,2.3-11.1,7.3l-4.3,22h-7.8l9.7-50l8-0.7l-4.1,21.3
		c5-5,10.3-7.6,15-7.6c5.5,0,7.1,3.2,7.1,7.1c0,7.1-4.8,19-4.8,22.5c0,1.3,0.6,1.4,6.8-0.1l1,4C167.6,54.5,162.4,53.2,162.4,47.8z"
		/>
	<path d="M203.2,45.9c-4.2,3.9-8.9,6.8-12.6,6.8c-4.2,0-7.6-3.5-7.6-10.9c0-13.2,9-26.8,23.8-26.8c2.9,0,6.2,0.4,9.8,1.4l-5.1,26.1
		c-0.6,3.2-0.5,3.2,6.6,1.7l1,4C206.7,55.3,202.7,53,203.2,45.9z M204.2,39.6l3.2-16.5c-2.8-0.8-5.5-1.2-6.9-1.2
		c-5.2,0-9.4,9.5-9.4,17.4c0,3.9,1.4,5.6,3.5,5.6C196.8,44.8,200.8,42.6,204.2,39.6z"/>
	<path d="M245.4,47.8c0-5.7,4.6-16.6,4.6-21.8c0-2.2-0.9-3.6-3.5-3.6c-3.1,0-6.7,2.1-11,6.7L231,51.7h-7.8c3.3-17.1,5-25.1,6.3-35.7
		l7.9-0.6l-0.9,7.1c5.2-5.3,10.6-7.8,15.3-7.8c5.5,0,7.1,3.2,7.1,7.1c0,7.1-4.8,19-4.8,22.5c0,1.3,0.6,1.4,6.8-0.1l1,4
		C250.5,54.5,245.4,53.2,245.4,47.8z"/>
	<path d="M326.8,24.1c0,15.6-10.7,28.7-24,28.7c-9.1,0-15.5-6.6-15.5-18c0-15.6,10.7-28.7,24-28.7C320.4,6.1,326.8,12.6,326.8,24.1z
		 M318.6,25.6c0-8.4-4.3-12.2-9.4-12.2c-8.8,0-13.7,9.8-13.7,19.8c0,8.4,4.3,12.2,9.4,12.2C313.7,45.4,318.6,35.6,318.6,25.6z"/>
	<path d="M339.6,3.3l10-0.2c-0.6,8.9-5.6,15.3-12,21.4l-3.3-1.9C338.5,17,339.5,10.8,339.6,3.3z"/>
	<path d="M350.3,51.7l8.6-44.4c18.6-3,29.9,2.9,29.9,17.1C388.7,40.9,375.9,54.8,350.3,51.7z M365.9,13.6l-6,31.4
		c14.2,0.3,20.7-8.6,20.7-19.7C380.5,17.6,376.2,13.1,365.9,13.6z"/>
	<path d="M414.1,14.7c7.8,0,13,5.5,13,14.7c0,12.5-9.9,23.4-20.2,23.4c-7.8,0-13-5.5-13-14.7C394,25.6,403.8,14.7,414.1,14.7z
		 M412,21.4c-6.2,0-9.9,7.3-9.9,14.6c0,6.3,2.6,9.9,7,9.9c6.2,0,9.9-7.3,9.9-14.6C419,25.1,416.4,21.4,412,21.4z"/>
	<path d="M454.3,47.8c0-5.7,4.6-16.6,4.6-21.8c0-2.2-0.9-3.6-3.5-3.6c-3.1,0-6.7,2.1-11,6.7l-4.5,22.6h-7.8
		c3.3-17.1,5-25.1,6.3-35.7l7.9-0.6l-0.9,7.1c5.2-5.3,10.6-7.8,15.3-7.8c5.5,0,7.1,3.2,7.1,7.1c0,7.1-4.8,19-4.8,22.5
		c0,1.3,0.6,1.4,6.8-0.1l1,4C459.5,54.5,454.3,53.2,454.3,47.8z"/>
	<path d="M497.6,47.8c0-5.7,4.6-16.6,4.6-21.8c0-2.2-0.9-3.6-3.5-3.6c-3.1,0-6.7,2.1-11,6.7l-4.5,22.6h-7.8
		c3.3-17.1,5-25.1,6.3-35.7l7.9-0.6l-0.9,7.1c5.2-5.3,10.6-7.8,15.3-7.8c5.5,0,7.1,3.2,7.1,7.1c0,7.1-4.8,19-4.8,22.5
		c0,1.3,0.6,1.4,6.8-0.1l1,4C502.8,54.5,497.6,53.2,497.6,47.8z"/>
	<path d="M518.9,39.5c0-12.1,9.7-24.8,21.2-24.8c6,0,9.6,3.5,9.6,9.1c0,8.9-8.7,13.8-23,14.8c0.3,7.1,4.5,8.3,20.5,4.9l0.9,3.8
		C527.8,58.3,518.9,50.5,518.9,39.5z M527.2,33.4c8.9-0.6,14.7-2.7,14.7-7.4c0-2.5-1.6-4.2-4.5-4.2
		C532.2,21.8,528.4,27.3,527.2,33.4z"/>
	<path d="M555,38.4c0-21.5,11.4-37.5,21.2-37.5c4,0,6.8,2.7,6.8,8.1c0,10.6-7.8,20.7-19.8,31c1,6.6,5.1,7.2,14.1,3l1.5,3.9
		C563.8,56.8,555,53.2,555,38.4z M563,34c7.8-8,11.8-15.3,11.8-21.2c0-2.4-1.2-3.4-2.4-3.4C568.6,9.5,563.5,18.3,563,34z"/>
	<path d="M584.1,38.4c0-21.5,11.4-37.5,21.2-37.5c4,0,6.8,2.7,6.8,8.1c0,10.6-7.8,20.7-19.8,31c1,6.6,5.1,7.2,14.1,3l1.5,3.9
		C593,56.8,584.1,53.2,584.1,38.4z M592.2,34C600,26,604,18.7,604,12.9c0-2.4-1.2-3.4-2.4-3.4C597.7,9.5,592.7,18.3,592.2,34z"/>
</g>
</svg>
